{"asset":{"generator":"3D Builder","version":"2.0"},"scene":0,"scenes":[{"nodes":[0]}],"nodes":[{"children":[1,2,3,4]},{"mesh":0,"matrix":[0.99999994039535522,0,0,0,0,-1.1920928244535389E-7,-0.99999982118606567,0,0,0.99999982118606567,-1.1920928244535389E-7,0,0,2.2737363330334293E-16,-2.7105052444114987E-23,1]},{"mesh":1,"matrix":[0.99999994039535522,0,0,0,0,-1.1920928244535389E-7,-0.99999982118606567,0,0,0.99999982118606567,-1.1920928244535389E-7,0,0,2.2737363330334293E-16,-2.7105052444114987E-23,1]},{"mesh":2,"matrix":[0.99999994039535522,0,0,0,0,-1.1920928244535389E-7,-0.99999982118606567,0,0,0.99999982118606567,-1.1920928244535389E-7,0,0,2.2737363330334293E-16,-2.7105052444114987E-23,1]},{"mesh":3,"matrix":[0.99999994039535522,0,0,0,0,-1.1920928244535389E-7,-0.99999982118606567,0,0,0.99999982118606567,-1.1920928244535389E-7,0,0,2.2737363330334293E-16,-2.7105052444114987E-23,1]}],"meshes":[{"primitives":[{"attributes":{"POSITION":0,"COLOR_0":1},"mode":4,"indices":2}]},{"primitives":[{"attributes":{"POSITION":3,"COLOR_0":4},"mode":4,"indices":5}]},{"primitives":[{"attributes":{"POSITION":6,"COLOR_0":7},"mode":4,"indices":8}]},{"primitives":[{"attributes":{"POSITION":9,"COLOR_0":10},"mode":4,"indices":11}]}],"accessors":[{"bufferView":0,"byteOffset":0,"count":150358,"componentType":5126,"type":"VEC3","min":[-1.1785837411880493,-1.4797979593276978,-2.2737368624290214E-16],"max":[1.1785836219787598,1.4797979593276978,1.5499627590179443]},{"bufferView":1,"byteOffset":0,"count":150358,"componentType":5121,"type":"VEC4","normalized":true},{"bufferView":2,"byteOffset":0,"count":899568,"componentType":5125,"type":"SCALAR"},{"bufferView":3,"byteOffset":0,"count":970,"componentType":5126,"type":"VEC3","min":[-0.066406130790710449,0.0922880619764328,0.85651129484176636],"max":[0.12919452786445618,0.19470538198947906,1.2241244316101074]},{"bufferView":4,"byteOffset":0,"count":970,"componentType":5121,"type":"VEC4","normalized":true},{"bufferView":5,"byteOffset":0,"count":5808,"componentType":5125,"type":"SCALAR"},{"bufferView":6,"byteOffset":0,"count":225,"componentType":5126,"type":"VEC3","min":[0.79161477088928223,-1.1273083686828613,1.2901979684829712],"max":[0.85193157196044922,-1.0675833225250244,1.3372557163238525]},{"bufferView":7,"byteOffset":0,"count":225,"componentType":5121,"type":"VEC4","normalized":true},{"bufferView":8,"byteOffset":0,"count":1338,"componentType":5125,"type":"SCALAR"},{"bufferView":9,"byteOffset":0,"count":389,"componentType":5126,"type":"VEC3","min":[-0.13284949958324432,0.11979769170284271,1.3334970474243164],"max":[-0.03132006898522377,0.19220452010631561,1.5229712724685669]},{"bufferView":10,"byteOffset":0,"count":389,"componentType":5121,"type":"VEC4","normalized":true},{"bufferView":11,"byteOffset":0,"count":2298,"componentType":5125,"type":"SCALAR"}],"bufferViews":[{"buffer":0,"byteOffset":0,"byteLength":1804296,"byteStride":12,"target":34962},{"buffer":0,"byteOffset":1804296,"byteLength":601432,"byteStride":4,"target":34962},{"buffer":0,"byteOffset":2405728,"byteLength":3598272,"target":34963},{"buffer":0,"byteOffset":6004000,"byteLength":11640,"byteStride":12,"target":34962},{"buffer":0,"byteOffset":6015640,"byteLength":3880,"byteStride":4,"target":34962},{"buffer":0,"byteOffset":6019520,"byteLength":23232,"target":34963},{"buffer":0,"byteOffset":6042752,"byteLength":2700,"byteStride":12,"target":34962},{"buffer":0,"byteOffset":6045452,"byteLength":900,"byteStride":4,"target":34962},{"buffer":0,"byteOffset":6046352,"byteLength":5352,"target":34963},{"buffer":0,"byteOffset":6051704,"byteLength":4668,"byteStride":12,"target":34962},{"buffer":0,"byteOffset":6056372,"byteLength":1556,"byteStride":4,"target":34962},{"buffer":0,"byteOffset":6057928,"byteLength":9192,"target":34963}],"buffers":[{"byteLength":6067120,"uri":"HipSkelTot_gltf.bin"}]}